<svg height="512pt" viewBox="0 -4 512 512" width="512pt" xmlns="http://www.w3.org/2000/svg"><path d="m67.21875 432.738281v-306.320312h-52.21875c-8.285156 0-15 6.714843-15 15v347.898437c0 8.285156 6.714844 15 15 15h359.773438c8.285156 0 15-6.714844 15-15v-56.578125zm0 0" fill="#127793"/><path d="m194.886719 432.738281v71.578125h179.886719c8.285156 0 15-6.714844 15-15v-56.578125zm0 0" fill="#0d5e7b"/><path d="m129.445312 364.855469v-301.644531h-55.730468c-8.285156 0-15 6.714843-15 15v347.894531c0 8.285156 6.714844 15 15 15h359.773437c8.285157 0 15-6.714844 15-15v-61.25zm0 0" fill="#ffd74a"/><path d="m253.601562 364.855469v76.25h179.886719c8.285157 0 15-6.714844 15-15v-61.25zm0 0" fill="#fdbf00"/><path d="m497 0h-359.773438c-8.285156 0-15 6.714844-15 15v347.898438c0 8.285156 6.714844 15 15 15h359.773438c8.285156 0 15-6.714844 15-15v-347.898438c0-8.285156-6.714844-15-15-15zm0 0" fill="#127793"/><path d="m233.203125 54.25c-29.398437 0-53.316406 23.835938-53.316406 53.136719 0 29.296875 23.917969 53.132812 53.316406 53.132812s53.316406-23.835937 53.316406-53.132812c0-29.300781-23.917969-53.136719-53.316406-53.136719zm0 0" fill="#ffd74a"/><path d="m497 0h-179.886719v377.898438h179.886719c8.285156 0 15-6.714844 15-15v-347.898438c0-8.285156-6.714844-15-15-15zm0 0" fill="#0d5e7b"/><path d="m327.050781 159.414062-161.390625 218.484376h331.339844c8.285156 0 15-6.714844 15-15v-66.292969l-161.617188-139.785157c-7.046874-6.09375-17.792968-4.898437-23.332031 2.59375zm0 0" fill="#0be7d5"/><path d="m350.382812 156.820312c-7.046874-6.09375-17.792968-4.898437-23.332031 2.59375l-9.9375 13.457032v205.027344h179.886719c8.285156 0 15-6.714844 15-15v-66.292969zm0 0" fill="#00d4b9"/></svg>