<svg height="512pt" viewBox="-29 0 512 512" width="512pt" xmlns="http://www.w3.org/2000/svg"><path d="m226.925781 71.53125c-8.28125 0-15-6.71875-15-15v-41.53125c0-8.285156 6.71875-15 15-15 8.285157 0 15 6.714844 15 15v41.53125c0 8.28125-6.714843 15-15 15zm0 0" fill="#127793"/><path d="m241.925781 56.53125v-41.53125c0-8.285156-6.714843-15-15-15v71.53125c8.285157 0 15-6.71875 15-15zm0 0" fill="#0d5e7b"/><path d="m354.429688 512c-3.859376 0-7.714844-1.480469-10.648438-4.433594l-116.855469-117.738281-116.855469 117.738281c-5.835937 5.878906-15.335937 5.914063-21.210937.078125-5.878906-5.835937-5.917969-15.332031-.082031-21.210937l127.503906-128.464844c2.816406-2.835938 6.648438-4.433594 10.644531-4.433594 4 0 7.832031 1.597656 10.648438 4.433594l127.5 128.464844c5.835937 5.878906 5.800781 15.378906-.078125 21.214844-2.925782 2.902343-6.746094 4.351562-10.566406 4.351562zm0 0" fill="#127793"/><path d="m365.074219 486.433594-127.5-128.464844c-2.816407-2.835938-6.648438-4.433594-10.648438-4.433594v36.292969l116.855469 117.738281c2.933594 2.953125 6.789062 4.433594 10.648438 4.433594 3.816406 0 7.640624-1.449219 10.5625-4.355469 5.882812-5.832031 5.917968-15.332031.082031-21.210937zm0 0" fill="#0d5e7b"/><path d="m438.855469 41.53125h-423.855469c-8.285156 0-15 6.714844-15 15v310.550781c0 8.285157 6.714844 15 15 15h423.855469c8.28125 0 15-6.714843 15-15v-310.550781c0-8.285156-6.71875-15-15-15zm0 0" fill="#ededf2"/><path d="m438.855469 41.53125h-211.929688v340.550781h211.929688c8.28125 0 15-6.714843 15-15v-310.550781c0-8.285156-6.71875-15-15-15zm0 0" fill="#e2e2e7"/><path d="m176.054688 298.878906c-2.546876 0-5.097657-.648437-7.390626-1.945312-4.703124-2.664063-7.609374-7.648438-7.609374-13.054688v-144.144531c0-5.40625 2.90625-10.390625 7.609374-13.054687 4.699219-2.664063 10.472657-2.589844 15.105469.191406l120.097657 72.074218c4.519531 2.710938 7.28125 7.589844 7.28125 12.859376 0 5.269531-2.761719 10.152343-7.28125 12.863281l-120.097657 72.074219c-2.371093 1.425781-5.042969 2.136718-7.714843 2.136718zm0 0" fill="#ffd74a"/><path d="m311.152344 211.808594c0-5.269532-2.765625-10.152344-7.28125-12.863282l-76.945313-46.175781v118.074219l76.941407-46.175781c4.519531-2.710938 7.285156-7.59375 7.285156-12.859375zm0 0" fill="#fdbf00"/></svg>